<?xml version="1.0" standalone="no"?>
<!DOCTYPE svg PUBLIC "-//W3C//DTD SVG 20010904//EN"
 "http://www.w3.org/TR/2001/REC-SVG-20010904/DTD/svg10.dtd">
<svg version="1.0" xmlns="http://www.w3.org/2000/svg"
 width="250.000000pt" height="250.000000pt" viewBox="0 0 250.000000 250.000000"
 preserveAspectRatio="xMidYMid meet">

<g transform="translate(0.000000,250.000000) scale(0.100000,-0.100000)"
fill="#000000" stroke="none">
<path d="M448 2484 c-193 -46 -333 -198 -402 -436 -39 -137 -48 -245 -44 -591
l3 -319 38 -34 37 -34 0 -303 c0 -220 4 -320 14 -368 62 -290 359 -465 639
-376 161 51 276 166 329 327 20 60 22 90 26 394 l4 329 25 20 c50 40 53 63 53
384 0 164 -5 337 -10 383 -42 343 -201 568 -441 625 -78 18 -195 18 -271 -1z
m325 -111 c92 -44 164 -119 216 -225 72 -147 91 -258 91 -550 l0 -206 -43 13
c-215 65 -579 71 -842 14 -49 -10 -93 -19 -98 -19 -5 0 -7 107 -5 248 5 285
15 344 83 487 66 140 141 211 270 258 39 13 74 17 155 14 94 -2 112 -6 173
-34z m61 -1018 c56 -8 133 -23 171 -33 l70 -17 0 -70 0 -70 -40 0 c-22 1 -85
10 -140 20 -143 27 -477 27 -620 0 -55 -10 -118 -19 -140 -20 l-40 0 0 70 0
70 70 18 c190 47 474 61 669 32z m-65 -241 l61 -7 0 -331 0 -332 -26 -52 c-80
-160 -294 -187 -408 -51 -55 65 -56 74 -56 435 l0 333 43 4 c76 7 323 7 386 1z
m-517 -361 c3 -331 3 -339 27 -391 31 -69 119 -151 190 -176 164 -58 350 21
424 181 21 46 22 62 25 386 2 185 7 337 11 337 5 0 23 -3 40 -6 l31 -6 0 -304
c0 -183 -4 -324 -11 -356 -25 -121 -122 -243 -236 -296 -52 -24 -69 -27 -168
-27 -105 0 -114 2 -177 33 -115 57 -192 148 -222 267 -13 47 -16 122 -16 371
l0 313 23 4 c61 12 56 39 59 -330z"/>
<path d="M1776 2484 c-131 -32 -264 -139 -333 -269 -90 -171 -113 -317 -113
-734 0 -336 2 -347 54 -388 l24 -20 4 -329 c4 -304 6 -334 26 -394 53 -161
168 -276 329 -327 280 -89 577 86 639 376 10 48 14 148 14 368 l0 303 38 34
37 34 3 319 c4 346 -5 454 -44 591 -86 295 -277 453 -544 451 -41 0 -101 -7
-134 -15z m336 -117 c98 -48 157 -112 214 -232 67 -143 77 -202 82 -487 2
-141 0 -248 -5 -248 -5 0 -49 9 -98 19 -263 57 -627 51 -842 -14 l-43 -13 0
213 c0 290 21 410 98 559 42 81 119 164 182 196 81 42 120 50 231 47 99 -2
110 -4 181 -40z m52 -1012 c56 -8 133 -23 171 -33 l70 -17 3 -68 c2 -54 0 -68
-13 -73 -8 -4 -77 4 -153 17 -194 34 -459 34 -654 0 -76 -13 -145 -21 -153
-17 -13 5 -15 19 -13 73 l3 68 70 18 c190 47 474 61 669 32z m-65 -241 l61 -7
0 -334 0 -334 -25 -48 c-55 -110 -171 -161 -287 -127 -69 20 -125 67 -154 130
-24 50 -24 55 -24 383 l0 332 43 4 c76 7 323 7 386 1z m-517 -361 c3 -324 4
-340 25 -386 74 -160 260 -239 424 -181 71 25 159 107 190 176 24 52 24 60 27
391 2 185 7 337 11 337 5 0 23 -3 40 -6 l31 -6 0 -312 c0 -250 -3 -324 -16
-371 -30 -119 -107 -210 -222 -267 -63 -31 -72 -33 -177 -33 -104 0 -114 2
-175 32 -88 43 -154 111 -199 203 l-36 75 -3 337 -3 336 23 5 c62 12 56 39 60
-330z"/>
</g>
</svg>
